<svg xmlns="http://www.w3.org/2000/svg" xmlns:xlink="http://www.w3.org/1999/xlink" zoomAndPan="magnify"
     viewBox="279 623 942 218" preserveAspectRatio="xMidYMid meet" version="1.0">
    <defs>
        <g/>
    </defs>
    <g fill="#1b1b1b" fill-opacity="1">
        <g transform="translate(282.761011, 833.624908)">
            <g>
                <path d="M 85.640625 0 C 70.628906 0 57.132812 -2.5 45.15625 -7.5 C 33.175781 -12.5 23.695312 -20.832031 16.71875 -32.5 C 9.738281 -44.164062 6.25 -60.003906 6.25 -80.015625 C 6.25 -98.972656 9.738281 -114.023438 16.71875 -125.171875 C 23.695312 -136.316406 33.175781 -144.285156 45.15625 -149.078125 C 57.132812 -153.867188 70.628906 -156.265625 85.640625 -156.265625 C 110.222656 -156.265625 128.503906 -149.703125 140.484375 -136.578125 C 152.460938 -123.453125 158.554688 -105.117188 158.765625 -81.578125 L 158.765625 -67.8125 L 92.203125 -63.125 L 92.203125 -70.3125 C 92.203125 -74.0625 90.691406 -76.5625 87.671875 -77.8125 C 84.648438 -79.070312 81.625 -78.914062 78.59375 -77.34375 C 75.570312 -75.78125 74.0625 -72.601562 74.0625 -67.8125 L 74.0625 -62.5 C 74.0625 -57.914062 75.882812 -54.632812 79.53125 -52.65625 C 83.1875 -50.675781 87.929688 -49.53125 93.765625 -49.21875 C 99.597656 -48.90625 105.691406 -49.164062 112.046875 -50 C 118.398438 -50.832031 124.285156 -51.925781 129.703125 -53.28125 C 135.117188 -54.632812 139.285156 -55.9375 142.203125 -57.1875 L 142.203125 -14.375 C 135.535156 -10.414062 129.335938 -7.394531 123.609375 -5.3125 C 117.878906 -3.226562 112.046875 -1.820312 106.109375 -1.09375 C 100.171875 -0.363281 93.347656 0 85.640625 0 Z M 85.640625 0 "/>
            </g>
        </g>
    </g>
    <g fill="#1b1b1b" fill-opacity="1">
        <g transform="translate(447.777886, 833.624908)">
            <g>
                <path d="M 6.25 0 L 11.875 -199.703125 L 74.6875 -199.703125 L 76.5625 -132.515625 C 81.15625 -138.554688 87.097656 -143.921875 94.390625 -148.609375 C 101.679688 -153.296875 111.054688 -155.640625 122.515625 -155.640625 C 134.390625 -155.640625 143.710938 -153.347656 150.484375 -148.765625 C 157.253906 -144.179688 162.203125 -138.191406 165.328125 -130.796875 C 168.453125 -123.398438 170.429688 -115.328125 171.265625 -106.578125 C 172.097656 -97.828125 172.515625 -89.179688 172.515625 -80.640625 L 172.515625 0 L 99.703125 0 L 99.390625 -66.875 C 99.390625 -71.039062 98.398438 -74.0625 96.421875 -75.9375 C 94.441406 -77.820312 92.097656 -78.710938 89.390625 -78.609375 C 86.679688 -78.503906 84.335938 -77.507812 82.359375 -75.625 C 80.378906 -73.75 79.390625 -71.144531 79.390625 -67.8125 L 80.640625 0 Z M 6.25 0 "/>
            </g>
        </g>
    </g>
    <g fill="#1b1b1b" fill-opacity="1">
        <g transform="translate(623.420829, 833.624908)">
            <g>
                <path d="M 86.265625 1.875 C 71.460938 1.875 58.019531 -0.625 45.9375 -5.625 C 33.851562 -10.625 24.21875 -18.90625 17.03125 -30.46875 C 9.84375 -42.03125 6.25 -57.707031 6.25 -77.5 C 6.25 -97.09375 9.84375 -112.722656 17.03125 -124.390625 C 24.21875 -136.054688 33.851562 -144.546875 45.9375 -149.859375 C 58.019531 -155.171875 71.460938 -157.828125 86.265625 -157.828125 C 101.265625 -157.828125 114.804688 -154.648438 126.890625 -148.296875 C 138.972656 -141.941406 148.554688 -132.828125 155.640625 -120.953125 C 162.722656 -109.078125 166.265625 -94.59375 166.265625 -77.5 C 166.265625 -59.582031 162.722656 -44.738281 155.640625 -32.96875 C 148.554688 -21.195312 138.972656 -12.445312 126.890625 -6.71875 C 114.804688 -0.988281 101.265625 1.875 86.265625 1.875 Z M 71.875 -63.75 C 71.875 -58.332031 73.28125 -54.53125 76.09375 -52.34375 C 78.914062 -50.15625 82.304688 -49.0625 86.265625 -49.0625 C 90.429688 -49.0625 93.921875 -50.3125 96.734375 -52.8125 C 99.546875 -55.3125 100.953125 -58.957031 100.953125 -63.75 C 100.953125 -68.125 99.546875 -71.507812 96.734375 -73.90625 C 93.921875 -76.300781 90.429688 -77.5 86.265625 -77.5 C 82.304688 -77.5 78.914062 -76.507812 76.09375 -74.53125 C 73.28125 -72.550781 71.875 -68.957031 71.875 -63.75 Z M 71.875 -63.75 "/>
            </g>
        </g>
    </g>
    <g fill="#1b1b1b" fill-opacity="1">
        <g transform="translate(789.687812, 833.624908)">
            <g>
                <path d="M 6.25 0 L 11.875 -199.703125 L 74.6875 -199.703125 L 76.5625 -132.515625 C 81.15625 -138.554688 87.097656 -143.921875 94.390625 -148.609375 C 101.679688 -153.296875 111.054688 -155.640625 122.515625 -155.640625 C 134.390625 -155.640625 143.710938 -153.347656 150.484375 -148.765625 C 157.253906 -144.179688 162.203125 -138.191406 165.328125 -130.796875 C 168.453125 -123.398438 170.429688 -115.328125 171.265625 -106.578125 C 172.097656 -97.828125 172.515625 -89.179688 172.515625 -80.640625 L 172.515625 0 L 99.703125 0 L 99.390625 -66.875 C 99.390625 -71.039062 98.398438 -74.0625 96.421875 -75.9375 C 94.441406 -77.820312 92.097656 -78.710938 89.390625 -78.609375 C 86.679688 -78.503906 84.335938 -77.507812 82.359375 -75.625 C 80.378906 -73.75 79.390625 -71.144531 79.390625 -67.8125 L 80.640625 0 Z M 6.25 0 "/>
            </g>
        </g>
    </g>
    <g fill="#1b1b1b" fill-opacity="1">
        <g transform="translate(968.456139, 833.624908)">
            <g>
                <path d="M 6.25 0 L 11.875 -200.015625 L 74.6875 -200.015625 L 80.640625 0 Z M 6.25 0 "/>
            </g>
        </g>
    </g>
    <g fill="#1b1b1b" fill-opacity="1">
        <g transform="translate(1052.214708, 833.624908)">
            <g>
                <path d="M 85.640625 0 C 70.628906 0 57.132812 -2.5 45.15625 -7.5 C 33.175781 -12.5 23.695312 -20.832031 16.71875 -32.5 C 9.738281 -44.164062 6.25 -60.003906 6.25 -80.015625 C 6.25 -98.972656 9.738281 -114.023438 16.71875 -125.171875 C 23.695312 -136.316406 33.175781 -144.285156 45.15625 -149.078125 C 57.132812 -153.867188 70.628906 -156.265625 85.640625 -156.265625 C 100.429688 -156.265625 112.617188 -154.128906 122.203125 -149.859375 C 131.785156 -145.585938 139.234375 -139.703125 144.546875 -132.203125 C 149.859375 -124.703125 153.554688 -115.953125 155.640625 -105.953125 C 157.722656 -95.953125 158.765625 -85.320312 158.765625 -74.0625 L 158.765625 -62.5 L 74.0625 -62.5 C 74.0625 -57.914062 75.882812 -54.632812 79.53125 -52.65625 C 83.1875 -50.675781 87.929688 -49.53125 93.765625 -49.21875 C 99.597656 -48.90625 105.691406 -49.164062 112.046875 -50 C 118.398438 -50.832031 124.285156 -51.925781 129.703125 -53.28125 C 135.117188 -54.632812 139.285156 -55.9375 142.203125 -57.1875 L 142.203125 -14.375 C 135.535156 -10.414062 129.335938 -7.394531 123.609375 -5.3125 C 117.878906 -3.226562 112.046875 -1.820312 106.109375 -1.09375 C 100.171875 -0.363281 93.347656 0 85.640625 0 Z M 74.0625 -80.015625 L 99.703125 -80.015625 C 99.703125 -84.179688 98.554688 -87.566406 96.265625 -90.171875 C 93.972656 -92.773438 90.742188 -94.078125 86.578125 -94.078125 C 83.242188 -94.078125 80.320312 -92.929688 77.8125 -90.640625 C 75.3125 -88.347656 74.0625 -84.804688 74.0625 -80.015625 Z M 74.0625 -80.015625 "/>
            </g>
        </g>
    </g>
</svg>
