<svg xmlns="http://www.w3.org/2000/svg" xmlns:xlink="http://www.w3.org/1999/xlink" zoomAndPan="magnify"
     viewBox="391 592 720 203" preserveAspectRatio="xMidYMid meet" version="1.0">
    <defs>
        <g/>
    </defs>
    <g fill="#1b1b1b" fill-opacity="1">
        <g transform="translate(394.250682, 769.832674)">
            <g>
                <path d="M 89.046875 1.6875 C 75.046875 1.6875 63.003906 -0.0820312 52.921875 -3.625 C 42.835938 -7.175781 34.15625 -13.992188 26.875 -24.078125 C 20.15625 -33.035156 16.796875 -51.984375 16.796875 -80.921875 C 16.796875 -94.171875 17.539062 -106.863281 19.03125 -119 C 20.53125 -131.132812 22.304688 -139.160156 24.359375 -143.078125 C 26.972656 -148.492188 30.238281 -152.273438 34.15625 -154.421875 C 38.082031 -156.566406 42.65625 -157.734375 47.875 -157.921875 C 57.019531 -157.921875 64.066406 -154.789062 69.015625 -148.53125 C 73.960938 -142.28125 76.4375 -133.742188 76.4375 -122.921875 C 76.4375 -119.554688 76.34375 -117.035156 76.15625 -115.359375 C 81.382812 -116.296875 85.957031 -116.765625 89.875 -116.765625 C 100.707031 -116.765625 110.414062 -114.148438 119 -108.921875 C 127.582031 -103.691406 134.300781 -96.503906 139.15625 -87.359375 C 144.007812 -78.210938 146.4375 -67.851562 146.4375 -56.28125 C 146.4375 -51.050781 145.878906 -45.640625 144.765625 -40.046875 C 142.148438 -25.859375 135.566406 -15.351562 125.015625 -8.53125 C 114.472656 -1.71875 102.484375 1.6875 89.046875 1.6875 Z M 87.640625 -34.4375 C 93.796875 -34.4375 99.066406 -36.628906 103.453125 -41.015625 C 107.847656 -45.398438 110.046875 -50.675781 110.046875 -56.84375 C 110.046875 -63 107.847656 -68.269531 103.453125 -72.65625 C 99.066406 -77.039062 93.796875 -79.234375 87.640625 -79.234375 C 81.296875 -79.234375 75.925781 -77.039062 71.53125 -72.65625 C 67.144531 -68.269531 64.953125 -63 64.953125 -56.84375 C 64.953125 -50.675781 67.144531 -45.398438 71.53125 -41.015625 C 75.925781 -36.628906 81.296875 -34.4375 87.640625 -34.4375 Z M 87.640625 -34.4375 "/>
            </g>
        </g>
    </g>
    <g fill="#1b1b1b" fill-opacity="1">
        <g transform="translate(535.648973, 769.832674)">
            <g>
                <path d="M 77.28125 4.203125 C 64.582031 4.203125 53.289062 2.054688 43.40625 -2.234375 C 37.613281 -4.660156 32.335938 -8.066406 27.578125 -12.453125 C 22.816406 -16.847656 19.691406 -22.03125 18.203125 -28 C 16.890625 -33.601562 16.234375 -38.269531 16.234375 -42 C 16.234375 -50.394531 18.003906 -58.140625 21.546875 -65.234375 C 25.097656 -72.328125 29.957031 -77.367188 36.125 -80.359375 C 29.40625 -80.171875 24.035156 -82.082031 20.015625 -86.09375 C 16.003906 -90.113281 14 -95.015625 14 -100.796875 C 14 -104.160156 14.742188 -107.472656 16.234375 -110.734375 C 17.734375 -114.003906 19.882812 -116.851562 22.6875 -119.28125 C 28.28125 -124.132812 35.789062 -127.492188 45.21875 -129.359375 C 54.644531 -131.222656 64.675781 -131.875 75.3125 -131.3125 C 94.726562 -130.757812 110.878906 -124.320312 123.765625 -112 C 130.671875 -105.28125 135.519531 -97.578125 138.3125 -88.890625 C 141.113281 -80.210938 142.515625 -70.179688 142.515625 -58.796875 C 142.515625 -45.921875 140.460938 -35.421875 136.359375 -27.296875 C 132.253906 -19.179688 125.628906 -12.039062 116.484375 -5.875 C 112.003906 -2.707031 106.265625 -0.238281 99.265625 1.53125 C 92.265625 3.3125 84.9375 4.203125 77.28125 4.203125 Z M 78.40625 -29.40625 C 84.1875 -29.40625 89.082031 -31.410156 93.09375 -35.421875 C 97.113281 -39.429688 99.125 -44.332031 99.125 -50.125 C 99.125 -55.71875 97.113281 -60.519531 93.09375 -64.53125 C 89.082031 -68.550781 84.1875 -70.5625 78.40625 -70.5625 C 72.613281 -70.5625 67.710938 -68.550781 63.703125 -64.53125 C 59.691406 -60.519531 57.6875 -55.71875 57.6875 -50.125 C 57.6875 -44.332031 59.691406 -39.429688 63.703125 -35.421875 C 67.710938 -31.410156 72.613281 -29.40625 78.40625 -29.40625 Z M 78.40625 -29.40625 "/>
            </g>
        </g>
    </g>
    <g fill="#1b1b1b" fill-opacity="1">
        <g transform="translate(673.127313, 769.832674)">
            <g>
                <path d="M 108.921875 1.125 C 87.265625 1.125 71.113281 -3.585938 60.46875 -13.015625 C 49.832031 -22.441406 44.515625 -36.117188 44.515625 -54.046875 C 44.515625 -59.453125 44.890625 -64.488281 45.640625 -69.15625 C 35.003906 -69.15625 27.257812 -71.300781 22.40625 -75.59375 C 17.550781 -79.894531 15.125 -86.800781 15.125 -96.3125 C 15.125 -106.769531 17.59375 -113.816406 22.53125 -117.453125 C 27.476562 -121.097656 35.832031 -122.921875 47.59375 -122.921875 C 47.40625 -124.035156 47.3125 -125.53125 47.3125 -127.40625 C 47.3125 -135.613281 49.738281 -142.238281 54.59375 -147.28125 C 59.445312 -152.320312 66.171875 -154.84375 74.765625 -154.84375 C 84.460938 -154.84375 91.597656 -152.132812 96.171875 -146.71875 C 100.753906 -141.300781 103.046875 -132.992188 103.046875 -121.796875 C 115.921875 -122.546875 125.15625 -120.726562 130.75 -116.34375 C 136.351562 -111.957031 139.15625 -104.441406 139.15625 -93.796875 C 139.15625 -83.535156 137.332031 -76.441406 133.6875 -72.515625 C 130.050781 -68.597656 123.941406 -66.640625 115.359375 -66.640625 C 113.867188 -66.640625 110.882812 -66.828125 106.40625 -67.203125 C 105.09375 -64.585938 104.4375 -61.878906 104.4375 -59.078125 C 104.4375 -55.160156 105.929688 -52.035156 108.921875 -49.703125 C 111.910156 -47.367188 116.015625 -45.921875 121.234375 -45.359375 C 125.535156 -44.796875 128.710938 -42.179688 130.765625 -37.515625 C 132.816406 -32.847656 133.84375 -28.179688 133.84375 -23.515625 C 133.84375 -16.984375 132.394531 -11.335938 129.5 -6.578125 C 126.601562 -1.816406 122.632812 0.65625 117.59375 0.84375 C 115.539062 1.03125 112.648438 1.125 108.921875 1.125 Z M 108.921875 1.125 "/>
            </g>
        </g>
    </g>
    <g fill="#1b1b1b" fill-opacity="1">
        <g transform="translate(808.365727, 769.832674)">
            <g>
                <path d="M 73.921875 0.84375 C 58.242188 0.84375 48.253906 0.375 43.953125 -0.5625 C 38.171875 -1.863281 32.945312 -4.660156 28.28125 -8.953125 C 23.613281 -13.253906 21.09375 -19.507812 20.71875 -27.71875 C 20.15625 -37.613281 22.019531 -45.125 26.3125 -50.25 C 30.613281 -55.382812 37.613281 -59.070312 47.3125 -61.3125 C 37.238281 -61.875 29.632812 -64.160156 24.5 -68.171875 C 19.363281 -72.191406 16.796875 -79.332031 16.796875 -89.59375 C 16.796875 -94.632812 18.660156 -99.769531 22.390625 -105 C 26.128906 -110.226562 31.359375 -113.398438 38.078125 -114.515625 C 44.984375 -115.828125 56.273438 -116.484375 71.953125 -116.484375 C 90.992188 -116.484375 105.648438 -115.269531 115.921875 -112.84375 C 123.390625 -110.976562 128.941406 -107.429688 132.578125 -102.203125 C 136.222656 -96.972656 138.046875 -90.90625 138.046875 -84 C 137.859375 -76.53125 136.921875 -70.835938 135.234375 -66.921875 C 133.554688 -63.003906 130.847656 -59.96875 127.109375 -57.8125 C 123.378906 -55.664062 117.691406 -53.566406 110.046875 -51.515625 C 119.378906 -50.210938 126.097656 -47.644531 130.203125 -43.8125 C 134.304688 -39.988281 136.453125 -33.691406 136.640625 -24.921875 C 136.640625 -18.941406 134.628906 -13.570312 130.609375 -8.8125 C 126.597656 -4.0625 121.515625 -1.3125 115.359375 -0.5625 C 108.453125 0.375 94.640625 0.84375 73.921875 0.84375 Z M 73.921875 0.84375 "/>
            </g>
        </g>
    </g>
    <g fill="#1b1b1b" fill-opacity="1">
        <g transform="translate(944.164052, 769.832674)">
            <g>
                <path d="M 94.078125 4.765625 C 87.734375 4.765625 80.359375 4.296875 71.953125 3.359375 C 62.992188 2.242188 54.828125 -0.128906 47.453125 -3.765625 C 40.085938 -7.410156 33.507812 -13.15625 27.71875 -21 C 23.238281 -27.15625 19.832031 -34.15625 17.5 -42 C 15.164062 -49.84375 14 -57.773438 14 -65.796875 C 14 -73.828125 15.117188 -81.203125 17.359375 -87.921875 C 27.441406 -117.785156 48.722656 -132.71875 81.203125 -132.71875 C 102.859375 -132.71875 120.5 -124.597656 134.125 -108.359375 C 138.601562 -103.128906 141.960938 -96.921875 144.203125 -89.734375 C 146.441406 -82.546875 147.5625 -75.5 147.5625 -68.59375 C 147.5625 -63.1875 146.859375 -58.332031 145.453125 -54.03125 C 144.054688 -49.738281 142.050781 -46.566406 139.4375 -44.515625 C 134.957031 -40.972656 127.675781 -39.203125 117.59375 -39.203125 C 123.945312 -38.453125 128.707031 -36.628906 131.875 -33.734375 C 135.050781 -30.847656 136.640625 -26.601562 136.640625 -21 C 136.640625 -19.132812 136.546875 -17.734375 136.359375 -16.796875 C 135.421875 -9.140625 131.125 -3.628906 123.46875 -0.265625 C 115.820312 3.085938 106.023438 4.765625 94.078125 4.765625 Z M 84.28125 -61.046875 C 91.375 -61.046875 97.347656 -62.769531 102.203125 -66.21875 C 107.054688 -69.675781 109.484375 -73.921875 109.484375 -78.953125 C 109.484375 -83.804688 107.054688 -87.957031 102.203125 -91.40625 C 97.347656 -94.863281 91.375 -96.59375 84.28125 -96.59375 C 77.375 -96.59375 71.445312 -94.863281 66.5 -91.40625 C 61.550781 -87.957031 59.078125 -83.804688 59.078125 -78.953125 C 59.078125 -73.921875 61.503906 -69.675781 66.359375 -66.21875 C 71.210938 -62.769531 77.1875 -61.046875 84.28125 -61.046875 Z M 84.28125 -61.046875 "/>
            </g>
        </g>
    </g>
</svg>